<?xml version="1.0" encoding="UTF-8"?>
<svg width="1119px" height="684px" viewBox="0 0 1119 684" version="1.1" xmlns="http://www.w3.org/2000/svg" xmlns:xlink="http://www.w3.org/1999/xlink">
    <!-- Generator: Sketch 55.2 (78181) - https://sketchapp.com -->
    <title>CC</title>
    <desc>Created with Sketch.</desc>
    <g id="Page-1" stroke="none" stroke-width="1" fill="none" fill-rule="evenodd">
        <g id="Desktop-HD" transform="translate(-161.000000, -170.000000)" fill="#000000" fill-rule="nonzero">
            <path d="M616.762501,255.15017 C617.757203,257.140541 618.254546,258.882089 618.254546,260.374867 C618.254546,261.867645 618.75189,263.609194 619.746592,265.599565 C621.735996,269.580306 621.238652,273.560988 618.254546,277.54173 C615.270441,281.522472 612.28638,282.517642 609.302274,280.527271 C599.355255,278.5369 589.408385,275.302596 579.461365,270.824262 C569.514346,266.345928 559.567476,262.116453 549.620457,258.135711 C539.673438,254.15497 529.726568,251.169458 519.779549,249.179087 C509.832529,247.188717 500.383003,247.686302 491.430686,250.671858 C471.536647,256.642971 450.896892,266.09709 429.510801,279.034501 C408.124709,291.971911 387.236282,308.143431 366.844893,327.549547 C346.453503,346.955662 327.55445,369.595791 310.147167,395.470611 C292.739883,421.345432 278.06825,450.205376 266.131827,482.051309 C251.211298,525.839467 246.735206,566.89025 252.703418,605.204888 C258.67163,643.519526 272.348576,675.613774 293.734667,701.488595 C315.120758,727.363416 342.971994,746.022862 377.289211,757.467494 C411.606427,768.912127 450.647892,770.15609 494.414776,761.199421 C526.245238,754.233123 556.583191,742.788663 585.429547,726.865696 C614.275903,710.942729 641.132452,694.522417 666,677.604265 C661.02649,685.565748 656.550399,692.531941 652.571591,698.503054 C648.592784,704.474166 642.624662,711.440359 634.667046,719.401843 C629.693537,724.37777 624.720102,731.095171 619.746592,739.554247 C614.773082,748.013323 609.799647,754.730723 604.826138,759.70665 C570.01157,797.523696 527.737373,824.890884 478.002277,841.809036 C467.060556,845.789778 457.611029,848.028911 449.653414,848.526504 C441.695798,849.024097 432.246272,850.26806 421.304551,852.258431 C405.38932,852.258431 389.474328,852.756016 373.559097,853.751201 C357.643866,854.746387 342.226218,852.756046 327.305689,847.780119 C283.538805,832.852338 246.238042,803.992394 215.402282,761.199421 C201.476456,742.290898 189.788883,719.153185 180.339215,691.785586 C170.889547,664.417987 164.921425,635.558043 162.43467,605.204888 C159.947915,574.851733 160.69393,544.747826 164.672738,514.892263 C168.651546,485.036701 177.106385,457.171928 190.03751,431.297107 C216.894462,373.576353 248.973118,321.827488 286.27444,276.048959 C323.575762,230.27043 368.088005,198.424975 419.812505,180.511638 C454.627073,167.574227 496.403927,166.579057 545.144321,177.526096 C557.080744,182.502023 570.509018,192.453728 585.429547,207.381509 L600.350001,222.309216 C605.323511,227.285143 610.296946,234.251336 615.270456,243.208005 C616.265158,245.198376 616.513829,247.188717 616.016478,249.179087 C615.519127,251.169458 615.767799,253.159799 616.762501,255.15017 Z M1230.7625,255.15017 C1231.7572,257.140541 1232.25455,258.882089 1232.25455,260.374867 C1232.25455,261.867645 1232.75189,263.609194 1233.74659,265.599565 C1235.736,269.580306 1235.23865,273.560988 1232.25455,277.54173 C1229.27044,281.522472 1226.28638,282.517642 1223.30227,280.527271 C1213.35525,278.5369 1203.40838,275.302596 1193.46137,270.824262 C1183.51435,266.345928 1173.56748,262.116453 1163.62046,258.135711 C1153.67344,254.15497 1143.72657,251.169458 1133.77955,249.179087 C1123.83253,247.188717 1114.383,247.686302 1105.43069,250.671858 C1085.53665,256.642971 1064.89689,266.09709 1043.5108,279.034501 C1022.12471,291.971911 1001.23628,308.143431 980.844893,327.549547 C960.453503,346.955662 941.55445,369.595791 924.147167,395.470611 C906.739883,421.345432 892.06825,450.205376 880.131827,482.051309 C865.211298,525.839467 860.735206,566.89025 866.703418,605.204888 C872.67163,643.519526 886.348576,675.613774 907.734667,701.488595 C929.120758,727.363416 956.971994,746.022862 991.289211,757.467494 C1025.60643,768.912127 1064.64789,770.15609 1108.41478,761.199421 C1140.24524,754.233123 1170.58319,742.788663 1199.42955,726.865696 C1228.2759,710.942729 1255.13245,694.522417 1280,677.604265 C1275.02649,685.565748 1270.5504,692.531941 1266.57159,698.503054 C1262.59278,704.474166 1256.62466,711.440359 1248.66705,719.401843 C1243.69354,724.37777 1238.7201,731.095171 1233.74659,739.554247 C1228.77308,748.013323 1223.79965,754.730723 1218.82614,759.70665 C1184.01157,797.523696 1141.73737,824.890884 1092.00228,841.809036 C1081.06056,845.789778 1071.61103,848.028911 1063.65341,848.526504 C1055.6958,849.024097 1046.24627,850.26806 1035.30455,852.258431 C1019.38932,852.258431 1003.47433,852.756016 987.559097,853.751201 C971.643866,854.746387 956.226218,852.756046 941.305689,847.780119 C897.538805,832.852338 860.238042,803.992394 829.402282,761.199421 C815.476456,742.290898 803.788883,719.153185 794.339215,691.785586 C784.889547,664.417987 778.921425,635.558043 776.43467,605.204888 C773.947915,574.851733 774.69393,544.747826 778.672738,514.892263 C782.651546,485.036701 791.106385,457.171928 804.03751,431.297107 C830.894462,373.576353 862.973118,321.827488 900.27444,276.048959 C937.575762,230.27043 982.088005,198.424975 1033.81251,180.511638 C1068.62707,167.574227 1110.40393,166.579057 1159.14432,177.526096 C1171.08074,182.502023 1184.50902,192.453728 1199.42955,207.381509 L1214.35,222.309216 C1219.32351,227.285143 1224.29695,234.251336 1229.27046,243.208005 C1230.26516,245.198376 1230.51383,247.188717 1230.01648,249.179087 C1229.51913,251.169458 1229.7678,253.159799 1230.7625,255.15017 Z" id="CC"></path>
        </g>
    </g>
</svg>